<svg xmlns="http://www.w3.org/2000/svg" viewBox="0 0 824.57 299.17"><defs><style>.cls-1{fill:#fff;}</style></defs><title>ieee</title><g id="Layer_2" data-name="Layer 2"><g id="Layer_1-2" data-name="Layer 1"><path class="cls-1" d="M487.62,222.58c-15.57-.15-32.7-3-48.91-10.62-5.22-2.46-6.83-5.61-5-11.23,2.71-8.48,4.94-17.11,7.13-25.74,1.53-6,3.47-7.39,8.67-2.6,10.79,10,24.09,13.41,38.53,13a30.77,30.77,0,0,0,12.89-3.09c11.8-5.85,13.26-18,2.94-26.08-4.12-3.26-8.86-5.74-13.38-8.47-3.57-2.17-7.21-4.21-10.84-6.27C461.56,131.24,450.16,117,451.94,95c1.82-22.46,12.73-39.07,33.32-48.22,24.14-10.73,48.91-8.94,73.4-.91,18.8,6.16,18.7,6.47,13.36,25.53-1.5,5.36-3.14,10.68-4.53,16.07-1.35,5.23-3.74,5.52-7.49,2.08a50.93,50.93,0,0,0-30-13.26,25.78,25.78,0,0,0-14.64,2.29c-9.65,4.91-11.48,15.2-3.66,22.61,3.59,3.39,8,6,12.22,8.64,5.68,3.49,11.74,6.39,17.37,10,32.54,20.58,34.6,62.4,4.22,86.35C529.18,219,510,222.65,487.62,222.58Z"/><path class="cls-1" d="M323.33,124.46c8.2-4.06,15.25-8.55,23.64-9.83,9.77-1.48,18.56-.15,24.28,8.78,2.6,4.08,4.59,2.46,7.29.64,7.23-4.89,15-8.53,23.75-9.71,20.26-2.74,34.24,9.35,31.24,29.35-3.58,23.9-9.49,47.46-14.3,71.19-.79,3.91-3.43,4.63-6.72,4.72-9.19.24-18.38.34-27.56.79-5.83.28-7.24-1.95-5.89-7.5,4.13-17,7.95-34.16,11.83-51.26a47.84,47.84,0,0,0,1.13-7.42c.34-5.13-.53-9.94-6.85-10.35-5.79-.37-10.22,1.81-11.51,8.36-3.8,19.39-8.15,38.69-11.54,58.15-1.28,7.33-4.5,9.74-11.57,9.45a204.4,204.4,0,0,0-22.54.59c-6.41.44-8.39-1.44-6.72-8.1,4-16.2,7.48-32.56,11.1-48.86a86.94,86.94,0,0,0,1.58-9c.55-4.73.06-9.49-5.64-10.42s-10.4,1.14-11.8,7.7c-4,18.78-8.51,37.48-11.88,56.37-1.54,8.69-4.71,12.68-14,11.88-7.44-.65-15,.11-22.53.44-5.06.22-7.05-1.18-5.7-6.79,7.08-29.5,15.54-58.7,19.31-88.91.55-4.39,3.7-5,7.12-5.59,8.79-1.4,17.83-2,26.32-4.45C325.14,111.76,323.8,118,323.33,124.46Z"/><path class="cls-1" d="M117.85,72.63a17.46,17.46,0,0,1-3,1.6c-32.64,7.48-48.43,26.26-50.44,60.06,0,.55,0,1.11-.07,1.66-.59,17.12,1.84,33.35,17.93,43.12,16.88,10.26,33.61,6.11,49.94-2.54,3.17-1.68,6.28-6.95,9.82-3.91,3,2.57-.4,7.29-1.24,10.95-2.07,8.94-4.67,17.76-6.78,26.69-1.14,4.8-3.72,7.62-8.46,9.22-26.84,9-53.63,9.67-79.89-1.46-23.69-10-38-28.35-43.4-53.49a99.27,99.27,0,0,1,.4-43.89C10.07,89.19,32,70.85,67.14,67.3,84,65.6,100.84,66.14,117.85,72.63Z"/><path class="cls-1" d="M679.8,161.69A74.05,74.05,0,0,1,677.32,179c-9.71,36.26-48.64,54.34-82.9,38.52a34.56,34.56,0,0,1-16.34-15C561.27,171.89,583,123.42,617,116a72.54,72.54,0,0,1,24.07-1.29C668.28,117.84,680.43,131.69,679.8,161.69Zm-67.94,20.7c.43,5.71-1.1,13,7,14.82,7.74,1.78,11.39-4.08,14.54-9.89a22.83,22.83,0,0,0,1.32-3A98.42,98.42,0,0,0,641,153.4c.22-5.91.46-12.53-6.86-14.31s-11.22,3.62-14,9.28C614.9,159,613,170.48,611.86,182.39Z"/><path class="cls-1" d="M261.55,161.6c.07,4.72-1.06,12.12-3.24,19.37-10.56,35.15-49.21,52.16-82.62,36.36-13.81-6.53-19.87-18.15-21-32.69A74.86,74.86,0,0,1,164.1,142c14.52-26.46,54.65-36.94,80.4-20.92C258.41,129.76,261.74,143.53,261.55,161.6Zm-38.73-7.37c.05-6.37.09-12-5.6-14.75-4.66-2.26-9.14-.36-11.79,3.55-9.74,14.35-13.11,30.53-11.14,47.52.81,7.06,8.18,9.2,14.17,5.09,3.82-2.62,5.92-6.56,7.6-10.73C220.16,174.75,221.81,164.06,222.82,154.23Z"/><path class="cls-1" d="M736.59,222.13c-32.76,0-51.58-21.16-47.82-54,5.25-45.76,47.51-61.7,82.48-50.54,7.2,2.3,11.16,6,7.22,14A37.37,37.37,0,0,0,777,136.4c-1.29,3.94-1.5,9.41-4.24,11.43-4,3-6.38-3.48-10-4.92-7-2.75-13.65-2.35-20,1.38-12.23,7.19-18.06,28.19-11.5,40.83,5,9.58,17,12.32,29.34,6.83,2.09-.94,4.26-4,6.5-1.92,2,1.84-.21,4.69-.6,7.09-.14.82-.34,1.63-.54,2.44C760.9,219.63,757.68,222.1,736.59,222.13Z"/><path class="cls-1" d="M224.6,46.78c0-13.07.22-26.14-.11-39.2-.13-5.32,1.38-7.52,7-7.44,15.57.25,31.14.18,46.71,0,4.64,0,7.05,1.74,6,6.4-.88,4,2,10.4-6,10.35-7.51-.06-15,.1-22.52-.26-5.35-.26-7.79,1.65-7.34,7.13a72.51,72.51,0,0,1,0,8.34c-.15,4.31,1.92,6,6.12,5.77,6.39-.28,12.79-.25,19.18-.5,4.68-.17,8.29.35,7.71,6.59-.49,5.3.51,11-7.94,10.27-5.79-.49-11.67.08-17.51-.09-5.23-.15-7.31,2-7.5,7.35-.55,15.7-.53,15.94,14.95,15.74,4.17-.06,8.34-.17,12.51-.28,9.67-.24,13.64,6.6,9.09,15.39-1.34,2.57-3.49,2.48-5.65,2.49-16.13,0-32.26-.09-48.38.09-5.42.06-6.35-2.66-6.28-7.31.21-13.62.08-27.24.08-40.87Z"/><path class="cls-1" d="M369.83,47.38c0-13.08.24-26.17-.11-39.24-.15-5.56,1.14-8.14,7.27-8,15.3.31,30.61.19,45.92.05,4.39,0,7.34,1.11,6.33,6.08-.86,4.22,2.18,11-6.46,10.71-7.51-.22-15,0-22.54-.26-4.43-.14-6.91,1.23-6.61,6.11a82.68,82.68,0,0,1,0,9.18c-.2,4.26,1.65,6.08,5.95,5.9,7-.28,13.91-.32,20.86-.46,3.88-.08,6.82,1.11,6.05,5.69-.69,4.16,1.95,10.45-5.58,10.9-6.66.39-13.36.31-20,.17-5.34-.12-7.22,2.13-7.32,7.5-.28,15.77-.48,15.78,14.91,15.58,3.9,0,7.79-.15,11.69-.25,10.88-.28,13.89,4.15,10.22,14.56-1.13,3.22-3.47,3.27-5.94,3.28-16.14,0-32.29-.09-48.43.09-5.61.06-6.17-3.06-6.12-7.5.14-13.35.05-26.71.05-40.07Z"/><path class="cls-1" d="M297,47.27c0-13.08.29-26.17-.13-39.23-.18-5.72,1.3-8,7.33-7.92,15.3.3,30.62.23,45.93,0,5.09-.06,7.29,1.86,6.52,6.9-.64,4.23,1.55,10.21-6.39,9.92-7.24-.26-14.49,0-21.72-.3-5.29-.25-7.84,1.58-7.38,7.11a70.31,70.31,0,0,1,0,8.34c-.16,4.34,1.9,6,6.11,5.76,5.84-.29,11.69-.23,17.53-.44,5-.18,9.34-.43,9,7.06-.27,6.63-1.4,10.65-9.3,9.78-5.22-.57-10.57.07-15.85-.09s-7.35,1.78-7.52,7.29c-.49,16-.71,16,15.49,15.77,3.62-.05,7.24-.15,10.86-.24,10.78-.26,13.43,3.42,10.49,14-1,3.66-3.54,3.89-6.37,3.9-16.15,0-32.3-.1-48.45.08-5.73.06-6-3.26-6-7.6.14-13.37.05-26.73.05-40.09Z"/><path class="cls-1" d="M41.64,57.83c28.75-22.24,61.1-28.11,96.27-21.21,8.29,1.63,15.9,5,23.36,8.79,4.15,2.13,5.46,4.74,3.91,9.41-3.25,9.77-6.16,19.66-8.84,29.6-1.92,7.12-4.43,7-9.29,2.12C124.17,63.39,96.36,53.16,63.87,55.21c-7.43.47-14.46,4.21-22.11,2.47Z"/><path class="cls-1" d="M209.9,48.51c0,12.79-.23,25.59.1,38.37.14,5.48-1.07,8.23-7.21,8.12-21.22-.38-17.74,2.9-17.25-17.24.56-22.52.86-45.06-.77-67.55-.53-7.29,1-10.44,9.25-10.2,15.9.47,15.87,0,15.75,16-.07,10.84,0,21.69,0,32.53Z"/><path class="cls-1" d="M755.5,271.43c5.34-3.26,6-7,7.61-10.1,1.71-3.22,4.36-5.13,7.36-3.38,3.18,1.86,0,4.4-1,6.27-5.56,10.26-11.42,20.37-17,30.62-1.88,3.45-4.86,5.61-8,3.5-3.47-2.31.44-4.86,1.67-6.85,5.73-9.27.86-18.44-.4-27.47-.48-3.51-5.16-.26-6,.56a13.48,13.48,0,0,0-3.3,13.69c.62,2.14,5.4,3.23,2.22,6.47-2.36,2.41-5.77,1.7-8.68.75-3.54-1.16-4.21-4.23-3.78-7.47.48-3.57,3-8,1.62-10.49-3.71-7,2.44-10.21,4.32-15,1.08-2.73,3.74-3.29,6.26-3.28,3.78,0,2.39,3,2.34,4.92-.06,2.76,1.76,3.63,3.73,3.26C754.67,255.57,756.85,261.45,755.5,271.43Z"/><path class="cls-1" d="M283.06,257.86c6-2.71,13.11,2.18,20.69-.32,5.82-1.92,9.62,2,8.68,8.55-.76,5.22-2.13,10.35-3.19,15.52-.82,4-3.67,4.67-6.95,3.93-3.81-.86-2.25-3.89-1.88-6.13.58-3.57,1.58-7.06,2.26-10.61.32-1.69.14-3.48-1.84-4.12-2.35-.75-3.82.62-4.37,2.68-1.22,4.57-2.38,9.16-3.21,13.81-.71,3.94-3.07,5-6.56,4.53-4.77-.67-2.58-4-2.2-6.41.46-3,1.38-6,1.8-9,.28-2.07,1.1-4.88-1.89-5.58-2.75-.64-3.85,1.68-4.4,4-1,4-2,8.1-2.72,12.21-.74,4.32-3.44,5.63-7.18,4.76-4.44-1.05-2-4.51-1.66-6.85.69-4.39,2-8.68,2.89-13C273,257.73,273.37,257.43,283.06,257.86Z"/><path class="cls-1" d="M235.09,258.07c6.27-2.81,13.59,2.49,20.86-.69a6.55,6.55,0,0,1,6.35,1.13c3.94,2.92,1.27,25-3.4,26.78a8.35,8.35,0,0,1-5.62-.17c-1.88-.77-1-2.88-.7-4.47.74-3.82,1.65-7.61,2.23-11.45.29-1.85.52-4.24-2.18-4.6-2.27-.3-3.6,1.31-4.09,3.37-1,4.33-2,8.67-2.85,13-.71,3.71-2.86,5.27-6.5,4.62-4.49-.8-2.66-4.11-2.3-6.59.47-3.3,1.37-6.53,2-9.81.38-2,.3-4.17-2.18-4.65s-3.5,1.37-4,3.37c-1,3.76-2,7.53-2.68,11.36s-1.76,7.22-6.73,6.39c-6-1-2.54-5-2.15-7.75.57-4.12,2-8.12,2.5-12.25C224.37,259.05,227.55,256.28,235.09,258.07Z"/><path class="cls-1" d="M59,285.84c-2.22,0-4.44,0-6.66,0-3.46,0-5.25-1.26-4.37-5,2.18-9.45,4.35-18.91,6.44-28.39.64-2.88,2.29-4.3,5.2-4.32,4.71,0,9.43-.06,14.14-.06,2.09,0,4,.42,4.06,3,0,2.43-1.66,3.31-3.82,3.48-1.38.11-2.77.15-4.15.21-3.11.15-6.57.17-6.86,4.31-.37,5.06,3.85,3.44,6.52,3.95,1.82.36,4.27,0,4.21,2.8s-2.19,3.53-4.63,3.61a56.09,56.09,0,0,0-5.81.32c-3.14.41-3.87,2.81-4,5.46-.11,3.17,2.24,3.34,4.54,3.47a7,7,0,0,1,1.66.07c2.32.68,6.42-1.76,6.61,2.59.2,4.8-4,4.4-7.29,4.43-1.94,0-3.88,0-5.82,0Z"/><path class="cls-1" d="M121.1,285.82a32.21,32.21,0,0,0-4.17,0c-6.71.86-8.3-1.79-6.41-8.12a127.15,127.15,0,0,0,4.8-21.11c.87-7.25,4.43-9.43,11.1-8.68,3,.34,6.11,0,9.17.11,2,0,4.15,0,4.19,2.81,0,2.32-1.35,3.51-3.63,3.69-.55,0-1.11.06-1.66.15-3.58.54-8.84-1.35-9.52,4.15-.76,6.22,4.91,3.32,7.8,4.3,1.34.45,2.82.69,2.85,2.43a3.26,3.26,0,0,1-2.77,3.6,23.7,23.7,0,0,1-5,.32c-3.93-.15-6.69,1.25-6.69,5.51,0,5,4.15,3.11,6.8,3.77,2.26.56,6.35-1.71,6,3.17-.23,3.74-3.35,3.85-6.25,3.83-2.23,0-4.45,0-6.67,0Z"/><path class="cls-1" d="M90.27,285.77c-12.53.08-12.51.09-9.7-11.89,1.45-6.22,3-12.42,4.08-18.71.89-5.37,3.46-7.71,8.95-7.22,3.86.34,7.78.06,11.66.18,1.63.05,3.55.17,3.61,2.45a3.52,3.52,0,0,1-3.45,3.91c-2.49.25-5,.3-7.48.5-3.18.25-4.21,2.48-4.21,5.19S96.07,262.73,98,263c2.49.37,6.48-1.15,6.44,3.07,0,4.72-4.39,3.37-7.09,3.33-4.34-.06-7.27,1.41-7.23,5.92,0,5.06,4.39,2.69,6.94,3.43,2.22.65,6.32-1.85,6.06,3.08-.18,3.7-3.2,4-6.15,3.94C94.71,285.74,92.49,285.77,90.27,285.77Z"/><path class="cls-1" d="M602.46,286.47a38.45,38.45,0,0,1-5-.68c-2.68-.66-5.78-1.24-5.08-5.18.87-4.82,3.73-2.37,6.28-1.75,3.56.87,7.78,1.69,9.58-2.4s-2.48-5.47-5.13-7.24c-7.51-5-9.18-10.6-4.89-16.56,3.77-5.24,15.3-7.13,20.63-3.56,2,1.35,2.45,2.93,1.66,5-1.31,3.33-3.46,1.5-5.48.84-3-1-6.39-1.65-8.14,1.72-2.08,4,1.72,5.34,4.22,6.72,5.64,3.12,9.57,7.18,7.38,14C616.23,284.63,610.14,286.38,602.46,286.47Z"/><path class="cls-1" d="M178.68,278.89c1.48.36,3.89-2.47,4.69.68.64,2.52-.6,4.74-3.3,6a16.31,16.31,0,0,1-22.95-13.15c-1.52-16.14,11.64-28.35,26.5-24.46,2.5.65,5.92.91,5.14,5.06-.82,4.32-3.72,2.76-6.44,2.42-8.91-1.11-15.62,5.09-15.51,14.1C166.89,276.27,171,279.52,178.68,278.89Z"/><path class="cls-1" d="M435.4,285.31c-5.24,1.05-10.15,1.83-13-3.41s-1.7-10.84,1.19-15.87c4-6.94,18.53-11.55,25.27-8.36,2.54,1.19,1.93,3.09,1.56,4.9q-1.87,9.38-4,18.71C444.8,288.62,439.06,284.82,435.4,285.31Zm4.93-16.11c-.27-2.33.47-5.4-3.07-4.67-4.79,1-6.15,5.1-6.7,9.36-.34,2.66.53,5.63,3.62,5.36C440.54,278.71,438.33,272.52,440.33,269.2Z"/><path class="cls-1" d="M713.64,279.63c1.52.27,4.45-2.37,5.19.85s-1.91,5-5,5.37c-6.1.67-12.77,1.7-16.4-4.74s-2-13,2.32-18.61C704,257,710,256,716.26,257.75c5,1.41,6.48,5.53,6.23,10.44-.3,5.79-4.53,5.28-8.41,5.38a5.65,5.65,0,0,0-1.65.06c-2.46.83-7.24-1.41-6.81,3.15C706,280.43,710.22,279.79,713.64,279.63Z"/><path class="cls-1" d="M361.66,257.85c16.57.61,16.6.64,13.23,16.93-.51,2.45-1.12,4.88-1.61,7.34-.75,3.78-3.58,3.8-6.44,3.52-4.16-.41-2.72-3.32-2.3-5.65s1.09-4.33,1.37-6.53c.39-3.08,2.86-7.61-1.54-8.63-5.15-1.19-4.59,4.37-5.59,7.51a56.58,56.58,0,0,0-1.92,9c-.61,4.06-3.27,4.85-6.65,4.38-4.77-.66-2.6-4-2.17-6.42.77-4.38,2.27-8.67,2.69-13.07C351.39,259.15,354.6,256.16,361.66,257.85Z"/><path class="cls-1" d="M332.2,285.49c-17.78-1-17.78-1-13.68-18.59.51-2.16,1-4.34,1.64-6.45,1-3.16,3.7-3,6.18-2.75,3.51.4,2.45,3.07,2.1,5.13-.64,3.82-1.59,7.59-2.18,11.42-.29,1.93-.12,4.1,2.43,4.52a3.71,3.71,0,0,0,4.43-2.89c1.23-4.55,2.4-9.12,3.25-13.75.73-3.95,3.2-4.95,6.61-4.44,4.81.71,2.46,4.14,2,6.46-.8,4.63-2,9.2-3.07,13.79C340.12,285.93,340.11,285.93,332.2,285.49Z"/><path class="cls-1" d="M534.46,257.92c13.51-.64,15.08,1.14,12.66,13.48-.75,3.82-1.57,7.63-2.58,11.39-.87,3.22-3.62,3-6.15,2.81-3.38-.31-2.87-2.83-2.48-5,.7-3.84,1.65-7.62,2.35-11.46.37-2.05,0-4.1-2.42-4.61s-3.78,1.1-4.31,3.08c-1.14,4.3-2.12,8.66-2.92,13-.75,4.14-3.15,5.86-7.08,5-4.37-1-2.29-4.31-1.9-6.78.47-3,1.65-5.94,2-9C522.46,261.41,524.53,254.65,534.46,257.92Z"/><path class="cls-1" d="M500.26,286.23c-8.4,0-12.87-4.14-12.81-11.88.08-10.11,6.87-17.24,16.42-17.26,8.19,0,12.86,4.37,12.79,12C516.57,279.39,510,286.23,500.26,286.23Zm7-16.93c-.08-3-.24-6.29-3.44-5.95-6.12.66-6.33,6.08-6.89,10.71-.34,2.83.07,6.58,3.73,6C506.52,279,506.52,273.49,507.29,269.3Z"/><path class="cls-1" d="M204.81,257.1c8.27-.11,12.93,4.1,13,11.73.08,10.29-6.37,17.26-16.1,17.4-8.52.11-12.89-3.81-12.95-11.63C188.67,264.38,195.23,257.23,204.81,257.1Zm-7,17.29c.16,2.92.65,6.17,3.76,5.7,6-.91,6.25-6.32,6.76-11,.31-2.85-.11-6.55-3.93-5.77C198.64,264.51,198.85,270.14,197.85,274.39Z"/><path class="cls-1" d="M635.28,286.23c-8.49,0-12.76-4-12.76-11.84,0-10.16,6.7-17.28,16.28-17.3,8.41,0,12.69,4,12.67,12C651.43,279.52,645.12,286.23,635.28,286.23Zm-3.66-11.39c.36,2.58.8,6.13,4.41,5.21,5.49-1.39,5.79-6.71,6.28-11.31.31-2.88-.54-6.24-4.21-5.39C632.41,264.67,632.64,270.15,631.62,274.84Z"/><path class="cls-1" d="M461.54,286.13c-4.94-.08-8-2.09-7.73-7.52.3-5.8,3.21-11.14.83-17.65-.73-2,3.89-9.7,9.72-11.44,1.89-.56,4.27-.83,4.16,2.2-.16,4.74,7,10.19-2.32,14.43-2.44,1.12-5.28,8.74-.76,13.34,1.6,1.63,2.62,2.84,1.36,4.88S463.45,286,461.54,286.13Z"/><path class="cls-1" d="M559.35,286.38a41,41,0,0,1-5-.73c-2.22-.56-4.42-1.53-3.73-4.47.84-3.58,3.08-2,5.15-1.25,2.39.87,5.3,1.71,6.69-1,1.64-3.19-1.69-4.08-3.67-5.25-5.74-3.39-6.77-7.87-2.84-13.12,2.93-3.9,13.75-5,17-2.06a3,3,0,0,1,.86,3.69c-.94,2.32-2.6,1.28-4.15.88-2.16-.54-4.63-1.29-5.64,1.53-.69,1.92,1.15,2.93,2.6,3.68,4.69,2.42,7.64,5.81,5.66,11.34S565.38,286.24,559.35,286.38Z"/><path class="cls-1" d="M671.82,257.09a29,29,0,0,1,3.39.38c2.34.47,4.36,1.41,3.7,4.38-.56,2.56-2.39,2.45-4.52,2.12-6.39-1-9.4,2.62-10,8.32-.51,5.24,2.53,7.56,7.69,7.23,1.43-.09,3,0,3,1.85-.06,2.46-1.46,3.89-4,4.61-8.3,2.38-15.94-3-16.36-11.67C654.32,264.79,661.51,257.18,671.82,257.09Z"/><path class="cls-1" d="M413.17,257.11a26.58,26.58,0,0,1,3.42.43c2,.46,3.77,1.28,3.46,3.83s-1.77,3.13-4.12,2.66c-6.31-1.26-9.61,2.09-10.38,7.8s2.48,8.08,8,7.69c1.42-.1,2.89.07,2.65,2.12a4.79,4.79,0,0,1-3.45,4.2,12.38,12.38,0,0,1-16.56-9.34C394.26,266.11,401.89,257,413.17,257.11Z"/><path class="cls-1" d="M30.23,280.92q3.36-14.64,6.74-29.26c1-4.24,4.41-3.82,7.35-3.4,4.09.6,2.35,3.63,1.86,5.88-1.93,9-4,17.9-5.91,26.89-.9,4.31-3.67,5-7.39,4.69C29.51,285.41,29.76,283.27,30.23,280.92Z"/><path class="cls-1" d="M693,262.36c-1.41,6.51-2.84,13-4.19,19.54-.86,4.16-4,4.2-7.09,3.8-4.13-.54-2.53-3.66-2.1-5.84,1.19-6,2.76-11.89,4-17.87.82-4,3.77-4.39,6.93-4.38C694.27,257.62,693.29,260.22,693,262.36Z"/><path class="cls-1" d="M393.19,262.41c-1.48,6.66-3,13.12-4.32,19.61-.89,4.27-4.13,4.06-7.1,3.61-4-.61-2.31-3.67-1.87-5.87,1.19-6,2.59-11.87,3.86-17.81.83-3.92,3.82-4.41,7-4.27C394.28,257.82,393.25,260.51,393.19,262.41Z"/><path class="cls-1" d="M485.06,262.24c-1.46,6.61-3,12.8-4.14,19.06-.83,4.65-4,4.92-7.41,4.33-4.1-.71-2.18-3.74-1.74-5.92,1.19-6,2.59-11.91,3.86-17.86.84-4,3.95-4.31,7.06-4.17C486.23,257.84,485.16,260.54,485.06,262.24Z"/><path class="cls-1" d="M824.56,139.35c-4.18-2.7-1.9-6.29-4-8.36-3.6,1.63-1.53,8.09-5.94,8.09-4.18,0-2.48-5.69-5.44-7.92-2.56,1.63-.22,5.29-4.52,8.29.34-6.34.59-11.44.93-16.52a2.28,2.28,0,0,1,2.18-2.11c1.68-.28,2.61.55,3.2,2,1.23,3,1.16,6.55,3.72,9.38,3.52-2.24,2.94-6.34,4.53-9.34.69-1.31,1.49-2.34,3.14-2.17,1.81.18,2.19,1.57,2.21,3C824.6,128.54,824.56,133.44,824.56,139.35Z"/><path class="cls-1" d="M696.05,249c-.08,2.83-2.73,3.75-6,3.88-2.1.08-3.85-.12-3.59-3,.36-3.87,3-4.71,6.21-5.08C695.06,244.57,696.3,245.32,696.05,249Z"/><path class="cls-1" d="M488.15,247.6c-.27,3.7-2.41,5.17-5.91,5.33-2.15.1-3.79,0-3.76-2.8,0-4,2.66-4.91,5.91-5.18C486.41,244.78,488.32,244.76,488.15,247.6Z"/><path class="cls-1" d="M396.15,248.69c-.3,3.38-3.07,4.06-6.28,4.28-2.5.18-3.41-.84-3.2-3.33.34-4.1,3.33-4.44,6.38-4.74C395.42,244.67,396.71,245.57,396.15,248.69Z"/><path class="cls-1" d="M801.42,120.74c-6.57,5-1.24,12.67-5.57,18.66-3.35-6.24,1.13-13.6-4.57-18.38C794.28,119.45,797.24,119.92,801.42,120.74Z"/><path class="cls-1" d="M41.76,57.68l.22.51s-.31-.36-.32-.36S41.76,57.68,41.76,57.68Z"/></g></g></svg>