<svg xmlns="http://www.w3.org/2000/svg" viewBox="0 0 1920 1007.6"><defs><style>.cls-1{font-size:124.23px;font-family:Montserrat-Regular, Montserrat;}.cls-1,.cls-7{fill:#fff;}.cls-2{letter-spacing:-0.04em;}.cls-3{letter-spacing:0em;}.cls-4{letter-spacing:-0.01em;}.cls-5{letter-spacing:-0.02em;}.cls-6{letter-spacing:-0.01em;}.cls-8{letter-spacing:-0.01em;}</style></defs><title>Artboard 18</title><g id="Layer_1" data-name="Layer 1"><text class="cls-1" transform="translate(74.74 940.39)"><tspan class="cls-2">P</tspan><tspan class="cls-3" x="83.6" y="0">ASSION </tspan><tspan class="cls-4" x="600.75" y="0">F</tspan><tspan x="678.27" y="0">OR KN</tspan><tspan class="cls-5" x="1094.17" y="0">O</tspan><tspan class="cls-6" x="1195.79" y="0">W</tspan><tspan x="1331.94" y="0">LEDGE</tspan></text><path class="cls-7" d="M143.2,170.84q23-12.85,52.35-12.86,47.38,0,79.43,37l46.93-43.33a148.78,148.78,0,0,0-55.73-41.51Q233,95.7,191.94,95.7q-48.74,0-87.77,21a156.58,156.58,0,0,0-61.38,58.22q-22.33,37.23-22.33,84.16t22.33,84.16a156.65,156.65,0,0,0,61.38,58.22q39,21,87.32,21,41.07,0,74.46-14.44a146.22,146.22,0,0,0,56-42L275,322.7q-32.06,37.46-79.43,37.46-29.34,0-52.35-12.87a91.39,91.39,0,0,1-35.87-35.87q-12.87-23-12.86-52.35t12.86-52.35A91.48,91.48,0,0,1,143.2,170.84Z"/><path class="cls-7" d="M605.76,116.92Q566.51,95.71,517.31,95.7t-88.68,21.22q-39.5,21.21-61.82,58.44t-22.34,83.71q0,46.49,22.34,83.71t61.82,58.44q39.5,21.22,88.68,21.21t88.45-21.21Q645,380,667.59,342.78t22.56-83.71q0-46.47-22.56-83.71T605.76,116.92Zm-2.48,194.5a92.34,92.34,0,0,1-35.43,35.87q-22.56,12.87-50.54,12.87t-50.54-12.87a92.27,92.27,0,0,1-35.43-35.87q-12.85-23-12.86-52.35t12.86-52.35a92.37,92.37,0,0,1,35.43-35.88Q489.33,158,517.31,158t50.54,12.86a92.43,92.43,0,0,1,35.43,35.88q12.86,23,12.86,52.35T603.28,311.42Z"/><polygon class="cls-7" points="1100.36 101.12 1040.34 101.12 923.91 297.43 805.68 101.12 745.21 101.12 745.21 417.02 813.8 417.02 813.8 231.54 906.31 383.62 939.25 383.62 1031 229.53 1100.4 112.65 1100.36 101.12"/><polygon class="cls-7" points="1175.22 34.67 1128.91 112.65 1059.52 229.53 1019.27 297.31 984.67 355.57 948.07 417.22 900.8 496.83 860.6 564.54 804.64 658.78 721.17 799.37 787.78 799.37 843.45 705.61 879.94 644.15 977.12 480.49 1010.61 424.08 1034.63 383.62 1061 339.21 1129.23 224.3 1195.82 112.16 1241.83 34.67 1175.22 34.67"/><path class="cls-7" d="M1072.69,516.3,1119.62,473a148.62,148.62,0,0,0-55.73-41.52,164.76,164.76,0,0,0-20.69-7.38l-33.49,56.41Q1046.37,485.94,1072.69,516.3Z"/><path class="cls-7" d="M901.88,722.76q39,21,87.32,21,41.07,0,74.46-14.44a146.07,146.07,0,0,0,56-42L1072.69,644q-32.06,37.47-79.43,37.46-29.34,0-52.34-12.86a91.4,91.4,0,0,1-28.39-24.46L876,705.61A164.86,164.86,0,0,0,901.88,722.76Z"/><path class="cls-7" d="M1403.47,438.23Q1364.22,417,1315,417t-88.68,21.21q-39.48,21.21-61.82,58.44t-22.34,83.71q0,46.49,22.34,83.71t61.82,58.44q39.5,21.22,88.68,21.21t88.45-21.21q39.27-21.19,61.83-58.44t22.56-83.71q0-46.47-22.56-83.71T1403.47,438.23ZM1401,632.73a92.34,92.34,0,0,1-35.42,35.88Q1343,681.46,1315,681.47t-50.54-12.86a92.37,92.37,0,0,1-35.43-35.88q-12.85-23-12.86-52.35T1229.05,528a92.27,92.27,0,0,1,35.43-35.87Q1287,479.29,1315,479.29t50.55,12.87A92.25,92.25,0,0,1,1401,528q12.85,23,12.86,52.35T1401,632.73Z"/><polygon class="cls-7" points="1838.05 422.43 1721.62 618.74 1603.39 422.43 1542.92 422.43 1542.92 738.33 1611.51 738.33 1611.51 552.85 1704.02 704.93 1736.97 704.93 1829.93 548.79 1830.38 738.33 1898.98 738.33 1898.07 422.43 1838.05 422.43"/><text class="cls-1" transform="translate(1213.88 382.18)">UNINO<tspan class="cls-8" x="442.12" y="0">R</tspan><tspan x="530.69" y="0">TE</tspan></text><text class="cls-1" transform="translate(1612.71 257.68)">IEEE</text></g></svg>