<svg xmlns="http://www.w3.org/2000/svg" viewBox="0 0 1144.98 347.26"><defs><style>.cls-1{fill:#fff;}</style></defs><title>litivo</title><g id="Layer_2" data-name="Layer 2"><g id="Layer_1-2" data-name="Layer 1"><path class="cls-1" d="M1015.36,302.82a129.11,129.11,0,0,1-129.19-129c-.1-71.33,58.15-129.56,129.59-129.57,72.36,0,129.29,58,129.22,131.58C1144.91,245.76,1086.68,302.82,1015.36,302.82Zm0-38a91.26,91.26,0,0,0,91.53-91c.2-49.55-40.78-91.21-89.88-91.35-51.19-.14-92.34,40.24-92.41,90.68C924.57,223.78,965.1,264.69,1015.4,264.79Z"/><path class="cls-1" d="M730.34,300c-5.25,0-10.51-.29-15.73.07-6.5.44-10-2.55-12.32-8.38Q680.17,235.77,657.74,180q-23.28-58.25-46.6-116.49c-4-10-1.49-13.95,9.19-14,8.52,0,17,.19,25.57-.07,7.31-.22,11.68,2.77,14.31,9.75q32.07,85,64.5,169.91c.93,2.45,1.78,4.94,2.91,7.29,1,2.13,2.11,4.67,5,4.57s4-2.58,4.83-4.79c4.49-11.57,8.87-23.2,13.25-34.82q26.42-70,52.79-140.11c3.81-10.12,6.1-11.72,16.9-11.73,7.87,0,15.74,0,23.6,0,10.35.07,12.87,3.9,8.88,13.63q-36.27,88.64-72.59,177.25-10.05,24.5-20.08,49C756.12,299.27,755,300,744.11,300Z"/><path class="cls-1" d="M310.85,122.93q0-53.1,0-106.2c0-10.22,2.64-12.89,12.65-12.93q10.15,0,20.32,0c10.27,0,12.9,2.58,12.91,12.63,0,19.67.23,39.34-.13,59-.1,5.62,1.66,6.81,7,6.74,23.6-.29,47.2-.14,70.8-.12,9.94,0,12.4,2.48,12.42,12.29,0,3.94,0,7.87,0,11.8,0,11.56-2.43,13.93-14.31,13.93-22.73,0-45.46.29-68.18-.17-6.58-.14-7.8,1.88-7.71,8,.47,30.8.45,61.61.63,92.41a54.93,54.93,0,0,0,.54,6.53c4.22,32.43,27.24,40.93,58.09,34.36,5.79-1.23,11.15-3.69,16.42-6.36,8.07-4.08,13.44-1,13.61,7.79.15,7.21,0,14.43.05,21.64.05,5.22-2.27,8.71-7.16,10.51-25.64,9.43-51.87,12.35-78.38,4.86-29.37-8.31-43-30.06-47.57-58.83a179.29,179.29,0,0,1-2-28.06Q310.83,167.85,310.85,122.93Z"/><path class="cls-1" d="M46.4,119.88c0,34.52,0,69,.08,103.55a51.75,51.75,0,0,0,1.74,11.62c4.26,17.59,15.18,26.49,34,28,13.43,1.08,26-1.83,37.94-7.89,9.55-4.85,14.44-1.8,14.47,9,0,7-.13,14,.05,21,.1,4.26-1.57,7.28-5.45,8.76-29,11.07-58.58,14.44-88.12,2.89-24.19-9.47-35-29.61-39.1-54A159.4,159.4,0,0,1,0,216Q0,116,0,16.05C0,5.87,2.08,3.82,12.26,3.8q10.17,0,20.33,0C42.92,3.84,45.89,6.74,45.9,17q0,51.47,0,102.92Z"/><path class="cls-1" d="M246.14,174q0,56.67,0,113.34c0,8.91-1.76,10.63-10.8,10.66-8.08,0-16.16.08-24.24,0-7.9-.1-10.83-2.89-10.83-10.62q-.08-113.34,0-226.68c0-7.82,3.3-11.08,11.18-11.19,8.08-.11,16.16-.07,24.24,0S246.13,51.83,246.13,60Q246.16,117,246.14,174Z"/><path class="cls-1" d="M511.51,173.58q0-56,0-112c0-9.29,2.73-12,12.05-12.08q11.46-.08,22.93,0c8.45,0,10.86,2.38,10.88,11q.09,42.91,0,85.82,0,69.44,0,138.87c0,11.39-1.46,12.84-12.78,12.84-7.42,0-14.85.07-22.27,0-8.43-.1-10.82-2.56-10.83-11.08Q511.49,230.24,511.51,173.58Z"/><path class="cls-1" d="M1011.76,0c22.37-.09,44.26,3,65.33,10.79,6.65,2.47,9.34,8,7.22,13.93s-7.58,8.72-14.24,6.42C1034,18.63,998,18.44,961.84,31c-6.69,2.33-12.51-.63-14.35-6.44-1.93-6.09.7-11.55,7.34-14A179.65,179.65,0,0,1,1011.76,0Z"/><path class="cls-1" d="M1014.1,347.26a174.11,174.11,0,0,1-58.17-10.21c-7.71-2.75-10.9-7.9-8.84-14.19,2.21-6.74,7.74-8.91,16-6.11q52.68,17.79,105.33-.06c7.51-2.56,13.6-.14,15.58,6.07,2,6.49-1,11.67-8.68,14.4C1056,344,1036.11,347.27,1014.1,347.26Z"/></g></g></svg>