<svg xmlns="http://www.w3.org/2000/svg" viewBox="0 0 32 32"><defs><style>.cls-1{fill:#2b2342;}</style></defs><title>logo32</title><g id="Layer_1" data-name="Layer 1"><g id="JF"><path class="cls-1" d="M15.58,31.74a4.57,4.57,0,0,1-1.33-.2c-.51-.15-.47-.78-.46-1,.12-2,2.23-9.25,4.71-16.18-1.79,1.52-3.19,2.55-3.37,2.68l-1.29,1.07c-2,6-4.46,11.86-6.82,13a2,2,0,0,1-1.8,0A2.3,2.3,0,0,1,3.85,29.3c-.37-3.27,6-9.14,9.1-11.79,1.24-3.79,2.34-7.76,3.13-10.86a13.91,13.91,0,0,1-6.88,5,.52.52,0,0,1-.63-.36.51.51,0,0,1,.37-.62h0a13.81,13.81,0,0,0,8-7.34.51.51,0,0,1,.95.34c-.11.49-1.47,6.39-3.42,12.6l.1-.08a57.63,57.63,0,0,0,4.7-3.87C22.11,4.56,24.28.51,25.69.27c.25,0,.86,0,1.23.85,1.38,3.38-3,8.35-6.85,11.83l-.35,1,.05,0s2.89,1.25,3.7,0a.52.52,0,0,1,.71-.16.52.52,0,0,1,.15.71c-.93,1.44-3,1-4.16.69.94,8,.13,13.67-2.26,15.72A3.5,3.5,0,0,1,15.58,31.74Zm-.78-1.11a2.64,2.64,0,0,0,2.45-.53c2.08-1.79,2.78-7.23,1.92-14.66C16.79,22.24,14.83,29.18,14.8,30.63ZM12.3,19.44c-3.39,3-7.69,7.49-7.43,9.75a1.23,1.23,0,0,0,.8,1,1,1,0,0,0,.91,0C8.4,29.29,10.47,24.72,12.3,19.44ZM25.83,1.27a2.55,2.55,0,0,0-.75.75,43.58,43.58,0,0,0-4.18,8.74c3.24-3.22,6-6.91,5.07-9.25A.6.6,0,0,0,25.83,1.27Z"/><circle class="cls-1" cx="18.01" cy="1.2" r="0.61"/><path class="cls-1" d="M10,9a.17.17,0,0,1,0-.33,10.32,10.32,0,0,0,4.53-3.62.18.18,0,0,1,.24,0,.17.17,0,0,1,0,.24A10.47,10.47,0,0,1,10.07,9Z"/><path class="cls-1" d="M16.65,11.43h0a.17.17,0,0,1-.12-.21L18,5.14a.17.17,0,1,1,.33.08L16.81,11.3A.18.18,0,0,1,16.65,11.43Z"/><path class="cls-1" d="M16.15,13.43h0a.18.18,0,0,1-.12-.21L16.3,12a.17.17,0,0,1,.21-.12.16.16,0,0,1,.12.2l-.31,1.27A.17.17,0,0,1,16.15,13.43Z"/><path class="cls-1" d="M13.25,29.35h0a.16.16,0,0,1-.14-.19,48.72,48.72,0,0,1,2.57-8.88.17.17,0,0,1,.22-.1.16.16,0,0,1,.09.22,48.85,48.85,0,0,0-2.55,8.82A.16.16,0,0,1,13.25,29.35Z"/><path class="cls-1" d="M25.79,7.85a.15.15,0,0,1-.12,0,.16.16,0,0,1,0-.24A6.58,6.58,0,0,0,27.49.65a.17.17,0,0,1,.09-.22.16.16,0,0,1,.22.09A6.93,6.93,0,0,1,25.91,7.8.15.15,0,0,1,25.79,7.85Z"/></g></g></svg>