<svg xmlns="http://www.w3.org/2000/svg" viewBox="0 0 16 16"><defs><style>.cls-1{fill:#2b2342;}</style></defs><title>logo16</title><g id="Layer_1" data-name="Layer 1"><g id="JF"><path class="cls-1" d="M7.79,16a2.38,2.38,0,0,1-.68-.1c-.26-.08-.24-.4-.23-.52A50.77,50.77,0,0,1,9.27,7.16c-.91.77-1.62,1.29-1.71,1.36l-.66.54c-1,3-2.26,6-3.46,6.61a1,1,0,0,1-.91,0,1.14,1.14,0,0,1-.7-.92c-.19-1.67,3-4.64,4.62-6C7.08,6.84,7.64,4.82,8,3.25A7,7,0,0,1,4.54,5.8a.26.26,0,0,1-.13-.5h0a7,7,0,0,0,4-3.73.26.26,0,0,1,.32-.13.25.25,0,0,1,.17.3C8.88,2,8.19,5,7.2,8.15l0,0a30.83,30.83,0,0,0,2.39-2c1.47-3.95,2.57-6,3.29-6.13.12,0,.43,0,.62.43.7,1.71-1.54,4.24-3.48,6l-.18.48h0s1.47.64,1.88,0a.26.26,0,0,1,.36-.07.25.25,0,0,1,.07.36c-.47.73-1.52.53-2.11.35.48,4,.07,7-1.15,8A1.78,1.78,0,0,1,7.79,16Zm-.4-.57a1.32,1.32,0,0,0,1.25-.27c1-.9,1.41-3.67,1-7.44A51.32,51.32,0,0,0,7.39,15.43ZM6.12,9.75C4.4,11.3,2.21,13.56,2.34,14.7a.65.65,0,0,0,.41.52.5.5,0,0,0,.46,0C4.14,14.75,5.19,12.43,6.12,9.75ZM13,.51a1.16,1.16,0,0,0-.38.39,21.63,21.63,0,0,0-2.13,4.43c1.65-1.63,3.07-3.5,2.58-4.7A.58.58,0,0,0,13,.51Z"/><circle class="cls-1" cx="9.02" cy="0.48" r="0.31"/><path class="cls-1" d="M5,4.45a.08.08,0,0,1-.08-.06.1.1,0,0,1,.06-.11A5.21,5.21,0,0,0,7.25,2.45a.08.08,0,0,1,.12,0,.08.08,0,0,1,0,.12A5.27,5.27,0,0,1,5,4.45Z"/><path class="cls-1" d="M8.33,5.67h0a.08.08,0,0,1-.06-.1L9,2.48s.06-.08.11-.06a.08.08,0,0,1,.06.1L8.41,5.61A.08.08,0,0,1,8.33,5.67Z"/><path class="cls-1" d="M8.08,6.69h0A.07.07,0,0,1,8,6.59l.16-.65a.08.08,0,0,1,.1-.06.07.07,0,0,1,.06.1l-.16.65A.08.08,0,0,1,8.08,6.69Z"/><path class="cls-1" d="M6.6,14.78h0a.08.08,0,0,1-.07-.1,24.7,24.7,0,0,1,1.3-4.51.09.09,0,1,1,.16.06,24.37,24.37,0,0,0-1.29,4.48A.1.1,0,0,1,6.6,14.78Z"/><path class="cls-1" d="M13,3.86a.07.07,0,0,1-.06,0,.08.08,0,0,1,0-.12A3.34,3.34,0,0,0,13.84.2a.08.08,0,0,1,.05-.11.08.08,0,0,1,.11,0,3.53,3.53,0,0,1-1,3.7A.09.09,0,0,1,13,3.86Z"/></g></g></svg>