<svg xmlns="http://www.w3.org/2000/svg" xmlns:xlink="http://www.w3.org/1999/xlink" viewBox="0 0 250 250"><defs><style>.cls-1{fill:#606060;}.cls-2,.cls-3{fill:none;stroke:#0ad0fc;stroke-linecap:round;stroke-miterlimit:10;}.cls-2{stroke-width:8px;}.cls-3{stroke-width:5px;}.cls-4{fill:#0ad0fc;}.cls-5{fill:#212121;}</style><symbol id="conver" data-name="conver" viewBox="0 0 507.59 506.86"><path class="cls-1" d="M187.75,404.07l-27.13-11.31a9.17,9.17,0,0,0-1.12-.37l-16.42-4.14v-9.78A123,123,0,0,1,172.74,387a8,8,0,0,0,10-2.88,6.62,6.62,0,0,0,.54-.63c15.81-20.4,24.52-46.83,24.52-74.4,0-61.13-42.57-110.85-94.91-110.85S18,247.91,18,309c0,28.18,9.05,55,25.48,75.62l.16.17c.06.08.14.16.21.24a7.66,7.66,0,0,0,.57.57l.19.16a7.9,7.9,0,0,0,2.82,1.52l.16,0a7,7,0,0,0,.91.2l.16,0a7.85,7.85,0,0,0,1.08.08h.14c.32,0,.64,0,1-.08l.39-.06a8.8,8.8,0,0,0,1-.26l.36-.14L53,387a122.47,122.47,0,0,1,29.58-8.47v9.68L65,392.37a7.53,7.53,0,0,0-1.22.39L36.69,404.07C23.83,408.53,0,425.88,0,460.5v38.35a8,8,0,0,0,8,8H216.44a8.07,8.07,0,0,0,8-8.08V460.5C224.45,425.88,200.62,408.53,187.75,404.07ZM52.4,369.91C40.48,352.84,34,331.47,34,309c0-52.3,35.4-94.85,78.91-94.85s78.91,42.55,78.91,94.85c0,22.38-6.52,43.81-18.44,60.87a135.84,135.84,0,0,0-15.75-4.81,52.85,52.85,0,0,0,12.26-25.26,25.9,25.9,0,0,0,.33-50.89,8,8,0,0,0-5.84-4.9c-31.12-6.34-44.43-24.16-45-24.88a8,8,0,0,0-12.25-.94C89.24,276.59,61.25,284.08,61,284.15a8,8,0,0,0-5.41,4.8,25.9,25.9,0,0,0,.31,50.89A52.76,52.76,0,0,0,68.14,365.1,131.88,131.88,0,0,0,52.4,369.91Zm118.33-47.36V306.18a9.89,9.89,0,0,1,0,16.37ZM55,306.18v16.37a9.89,9.89,0,0,1,0-16.37Zm16,24V297.8c9-3.05,26.57-10.08,41.38-22.62,7.15,6.9,20.86,17.38,42.36,23.06v32a37,37,0,0,1-37,37H108A37,37,0,0,1,71,330.21Zm21.43,72.06a8,8,0,0,0,6.14-7.78V382.35a53.15,53.15,0,0,0,9.42.86h9.76a53.28,53.28,0,0,0,9.34-.84v12.12a8,8,0,0,0,6,7.76l15.38,3.87L147.15,411a68.31,68.31,0,0,1-68.54.15l-1.45-5.2ZM79.14,490.85H52.82V458.76a8,8,0,0,0-16,0v32.1H16V460.5c0-31.85,25.05-41,26.07-41.36.18-.06.35-.12.53-.2l19.32-8.05L64,418.32a0,0,0,0,0,0,0l20.31,72.5Zm45.63,0H101l-16.7-59.61A85.11,85.11,0,0,0,113,436.36a82,82,0,0,0,28.45-5.15Zm83.67,0H187.63v-32.1a8,8,0,0,0-16,0v32.1H141.39l22.27-79.49L181.84,419l.48.18c1.07.37,26.12,9.52,26.12,41.37v30.36Z"/><path class="cls-1" d="M129.38,123h36.08v37.21a8,8,0,0,0,14,5.24l16.79-19.37a8,8,0,0,0,7.57,5.41h86.69L327.35,194a8,8,0,0,0,14-5.24V151.5h36.08a8,8,0,0,0,8-8v-107a8,8,0,0,0-8-8H311V8a8,8,0,0,0-8-8H129.38a8,8,0,0,0-8,8V115A8,8,0,0,0,129.38,123Zm8-107H295V28.49H281.14a8,8,0,1,0,0,16h88.33v91H333.4a8,8,0,0,0-8,8v23.76l-25.13-29a8,8,0,0,0-6.05-2.77H211.87v-91h42.59a8,8,0,0,0,0-16H203.87a8,8,0,0,0-8,8v85.66l-14.39,16.62V115a8,8,0,0,0-8-8H137.39V16Z"/><path class="cls-1" d="M470.91,403.54,444.2,392.41l-18-11.86v-4.39A53.12,53.12,0,0,0,453,339.28a25.88,25.88,0,0,0,14.58-42.79V271.26a69.14,69.14,0,0,0-69.07-69.07h-5.09a69.15,69.15,0,0,0-69.07,69.07v25.35A25.88,25.88,0,0,0,339,339.28a53.13,53.13,0,0,0,26.72,36.88v3.92l-18,11.9a5.83,5.83,0,0,0-.7.25l-27.14,11.31C307,408,283.15,425.34,283.15,460v38.35a8,8,0,0,0,8,8h52.56a8,8,0,0,0,0-16H336V458.23a8,8,0,1,0-16,0v32.09h-20.8V460c0-31.86,25-41,26.07-41.36l.53-.2,19.32-8.05,22.45,80.17a8,8,0,0,0,1.79,15.8H499.59a8.07,8.07,0,0,0,8-8.08V460C507.6,425.34,483.77,408,470.91,403.54Zm-17.06-97.92a9.89,9.89,0,0,1,0,16.37ZM338.1,322a9.88,9.88,0,0,1,0-16.37Zm8-38.66h0a7.09,7.09,0,0,0-.81,0l-.25,0a4.85,4.85,0,0,0-.55.08l-.34.09-.42.11-.38.14L343,284l-.43.2-.27.13-.42.25-.24.15-.38.28-.24.18-.32.29-.25.22-.14.16V271.26a53.12,53.12,0,0,1,53.06-53.06h5.1a53.12,53.12,0,0,1,53.06,53.06V285.7l-.2-.18c-.1-.1-.2-.2-.31-.29l-.27-.21-.35-.26a2.9,2.9,0,0,0-.29-.19l-.35-.22-.37-.18-.32-.16-.45-.17-.28-.11-.51-.14-.21-.06c-16.6-3.78-21.82-25.3-21.86-25.49a8,8,0,0,0-14.29-2.92C391.26,283.05,346.73,283.33,346.13,283.33Zm8,46.32V298.92c13.54-1.2,41.2-5.85,61.09-24.08,4.12,8,11.19,17.53,22.65,22.3v32.51a37,37,0,0,1-37,37h-9.76A37,37,0,0,1,354.1,329.65Zm35.16,103.54,6.35-4.67,6.55,4.81-2.09,5.57h-8.42Zm6.41-26.13-14-13.6v-9h0V381.8a53.73,53.73,0,0,0,9.38.85h9.76a53.73,53.73,0,0,0,9.38-.85V392Zm-19.75,54.07-4.3-15.35a7.77,7.77,0,0,0,1.93-1L376,443l2.06,4.93Zm-4.12-35-11.39-23.41,5.62-3.71a7.92,7.92,0,0,0,2.1,3.52l15.38,15Zm15.63,64.15,5.71-35.41h5.66l5.71,35.41ZM424,400.73a8.12,8.12,0,0,0,1.22-1.67l5.6,3.7-11.39,23.42-2.73-2h0l-8.92-6.57Zm-7.95,60.59-2.2-13.59,1.71-4.53,2.12,1.56a8.18,8.18,0,0,0,2.65,1.26Zm75.54,29H470.78V458.23a8,8,0,1,0-16,0v32.09H424.54l22.27-79.48L465,418.41l.48.18c1.07.38,26.12,9.53,26.12,41.38v30.35Z"/><polyline class="cls-2" points="354.48 77.75 354.48 115.28 323.99 115.28"/><path class="cls-3" d="M393.37,226.58s-35.6,0-45,36.24"/><circle class="cls-4" cx="400.56" cy="226.58" r="3.09"/><path class="cls-3" d="M461.13,423s23.3,10.46,22.52,32.25v28.32"/><path class="cls-3" d="M177.33,423s23.3,10.46,22.52,32.25v28.32"/><circle class="cls-4" cx="158.39" cy="36.73" r="9.92"/><path class="cls-3" d="M427.56,323.47s0,28.25-23.91,30.79"/><path class="cls-3" d="M145.29,323.47s0,28.25-23.91,30.79"/><path class="cls-3" d="M112.22,221.85s-53.08,6.3-63.08,59.3"/><line class="cls-3" x1="131.33" y1="440" x2="118.38" y2="485.89"/></symbol></defs><title>psico</title><g id="Layer_1" data-name="Layer 1"><use width="507.59" height="506.86" transform="translate(50.92 27.13) scale(0.29)" xlink:href="#conver"/><path class="cls-5" d="M15.11,180.91,25.69,203.6H23.24l-3.57-7.46H9.9L6.36,203.6H3.83l10.72-22.69Zm-.29,4.82L10.93,194h7.76Z"/><path class="cls-5" d="M45.61,180.34V203.6H43.48v-2.88a9.2,9.2,0,0,1-3,2.48,8.48,8.48,0,0,1-9.78-1.75,8.66,8.66,0,0,1-2.52-6.28A8.55,8.55,0,0,1,30.67,189a8.33,8.33,0,0,1,6.13-2.57,7.88,7.88,0,0,1,3.74.88,8.41,8.41,0,0,1,2.94,2.64v-9.57ZM37,188.47a6.53,6.53,0,0,0-5.76,3.38,6.8,6.8,0,0,0,0,6.78,6.61,6.61,0,0,0,2.44,2.51,6.3,6.3,0,0,0,3.29.91,6.72,6.72,0,0,0,3.36-.9,6.17,6.17,0,0,0,2.44-2.42,6.88,6.88,0,0,0,.86-3.43,6.67,6.67,0,0,0-1.92-4.87A6.33,6.33,0,0,0,37,188.47Z"/><path class="cls-5" d="M49.68,186.82h2.21v2.45A7.57,7.57,0,0,1,54,187.11a4.09,4.09,0,0,1,2.28-.72,3.9,3.9,0,0,1,1.91.57L57,188.78a2.89,2.89,0,0,0-1.14-.29,3.14,3.14,0,0,0-2.09.88,5.66,5.66,0,0,0-1.52,2.76,26.22,26.22,0,0,0-.4,5.8v5.67H49.68Z"/><path class="cls-5" d="M60.75,179.91a1.71,1.71,0,0,1,1.26.52,1.74,1.74,0,0,1,.52,1.27,1.77,1.77,0,0,1-3,1.25A1.75,1.75,0,0,1,59,181.7a1.78,1.78,0,0,1,.52-1.27A1.71,1.71,0,0,1,60.75,179.91Zm-1.07,6.91h2.16V203.6H59.68Z"/><path class="cls-5" d="M83.05,186.82V203.6H80.92v-2.88a9.2,9.2,0,0,1-3,2.48,8.48,8.48,0,0,1-9.78-1.75,8.66,8.66,0,0,1-2.52-6.28A8.55,8.55,0,0,1,68.11,189a8.33,8.33,0,0,1,6.13-2.57,7.88,7.88,0,0,1,3.74.88,8.32,8.32,0,0,1,2.94,2.64v-3.09Zm-8.63,1.65a6.53,6.53,0,0,0-5.76,3.38,6.8,6.8,0,0,0,0,6.78,6.61,6.61,0,0,0,2.44,2.51,6.3,6.3,0,0,0,3.29.91,6.72,6.72,0,0,0,3.36-.9,6.17,6.17,0,0,0,2.44-2.42,6.88,6.88,0,0,0,.86-3.43,6.67,6.67,0,0,0-1.92-4.87A6.33,6.33,0,0,0,74.42,188.47Z"/><path class="cls-5" d="M87.91,186.82h2.16v3a9.13,9.13,0,0,1,2.87-2.59,7.05,7.05,0,0,1,3.42-.85,6,6,0,0,1,3.34,1,5.71,5.71,0,0,1,2.15,2.58,13.46,13.46,0,0,1,.7,5.05v8.63h-2.16v-8a19.69,19.69,0,0,0-.24-3.87,4.26,4.26,0,0,0-1.44-2.51,4.36,4.36,0,0,0-2.78-.84,5.33,5.33,0,0,0-3.51,1.29,6.08,6.08,0,0,0-2,3.21,22.07,22.07,0,0,0-.31,4.57v6.15H87.91Z"/><path class="cls-5" d="M123.9,186.82V203.6h-2.13v-2.88a9.2,9.2,0,0,1-3,2.48,8.48,8.48,0,0,1-9.78-1.75,8.66,8.66,0,0,1-2.52-6.28A8.52,8.52,0,0,1,109,189a8.3,8.3,0,0,1,6.12-2.57,7.88,7.88,0,0,1,3.74.88,8.32,8.32,0,0,1,2.94,2.64v-3.09Zm-8.63,1.65a6.53,6.53,0,0,0-5.76,3.38,6.8,6.8,0,0,0,0,6.78,6.61,6.61,0,0,0,2.44,2.51,6.3,6.3,0,0,0,3.29.91,6.72,6.72,0,0,0,3.36-.9,6.17,6.17,0,0,0,2.44-2.42,6.88,6.88,0,0,0,.86-3.43,6.67,6.67,0,0,0-1.92-4.87A6.33,6.33,0,0,0,115.27,188.47Z"/><path class="cls-5" d="M159.75,184.72,158,186.39a13.2,13.2,0,0,0-4.16-2.83,11.2,11.2,0,0,0-4.4-1,10.53,10.53,0,0,0-5.08,1.31,9.6,9.6,0,0,0-3.75,3.56,9.23,9.23,0,0,0-1.32,4.74,9.42,9.42,0,0,0,1.37,4.87,9.76,9.76,0,0,0,3.8,3.63,10.88,10.88,0,0,0,5.3,1.32,9.07,9.07,0,0,0,5.93-2,7.82,7.82,0,0,0,2.87-5.12h-7.24v-2.19h9.78a11.38,11.38,0,0,1-3.12,8.35,11.19,11.19,0,0,1-8.28,3.09,12.4,12.4,0,0,1-10-4.28,11.37,11.37,0,0,1-2.83-7.64,11.7,11.7,0,0,1,1.62-6,11.46,11.46,0,0,1,4.45-4.34,12.86,12.86,0,0,1,6.38-1.57,14.3,14.3,0,0,1,5.43,1A16.39,16.39,0,0,1,159.75,184.72Z"/><path class="cls-5" d="M173,186.39a8.28,8.28,0,0,1,6.43,2.81,9,9,0,0,1-.13,12.21,8.87,8.87,0,0,1-12.61,0,9,9,0,0,1-.13-12.2A8.3,8.3,0,0,1,173,186.39Zm0,2.11a6.27,6.27,0,0,0-4.63,2,6.65,6.65,0,0,0-1.93,4.81,6.81,6.81,0,0,0,.88,3.4,6.21,6.21,0,0,0,2.39,2.43,6.81,6.81,0,0,0,6.59,0,6.27,6.27,0,0,0,2.39-2.43,6.92,6.92,0,0,0,.88-3.4,6.63,6.63,0,0,0-1.95-4.81A6.25,6.25,0,0,0,173,188.5Zm1.08-9.55h3.31l-4.55,4.75H170.7Z"/><path class="cls-5" d="M185.73,186.82h2.16v2.9a8.29,8.29,0,0,1,2.31-2.34,6.58,6.58,0,0,1,3.45-1,5.77,5.77,0,0,1,2.32.48,5,5,0,0,1,1.79,1.27,6.89,6.89,0,0,1,1.2,2.28,8.09,8.09,0,0,1,2.69-3,6.41,6.41,0,0,1,3.48-1,5.39,5.39,0,0,1,3.07.88,5.18,5.18,0,0,1,2,2.45,13.09,13.09,0,0,1,.65,4.72v9.16h-2.21v-9.16a12.2,12.2,0,0,0-.38-3.71,3.39,3.39,0,0,0-1.32-1.63,3.93,3.93,0,0,0-2.22-.61,4.81,4.81,0,0,0-2.87.92,5.38,5.38,0,0,0-1.9,2.47,15.65,15.65,0,0,0-.6,5.15v6.57h-2.16V195a15,15,0,0,0-.37-4.13,3.57,3.57,0,0,0-1.32-1.74,3.89,3.89,0,0,0-2.24-.65,4.83,4.83,0,0,0-2.8.9,5.35,5.35,0,0,0-1.93,2.43,13.24,13.24,0,0,0-.62,4.67v7.11h-2.16Z"/><path class="cls-5" d="M229.51,198l1.82,1a10.08,10.08,0,0,1-2.07,2.84,8.07,8.07,0,0,1-2.64,1.64,9.14,9.14,0,0,1-3.32.57,8,8,0,0,1-6.42-2.7,9,9,0,0,1-2.32-6.08,8.94,8.94,0,0,1,2-5.69,8,8,0,0,1,6.66-3.18,8.27,8.27,0,0,1,6.85,3.25,9.08,9.08,0,0,1,1.85,5.74h-15.1a6.87,6.87,0,0,0,1.87,4.8,6,6,0,0,0,4.46,1.87,7.13,7.13,0,0,0,2.5-.45,6.66,6.66,0,0,0,2.06-1.18A10.08,10.08,0,0,0,229.51,198Zm0-4.52a7.19,7.19,0,0,0-1.26-2.77,6,6,0,0,0-2.19-1.66,6.66,6.66,0,0,0-2.85-.63A6.18,6.18,0,0,0,219,190a7.16,7.16,0,0,0-2,3.48Z"/><path class="cls-5" d="M234.54,186.82h12.32l-9.5,14.87h9.2v1.91H233.64l9.5-14.88h-8.6Z"/><path class="cls-1" d="M25.36,218.24l1.56-10.84h.17l4.41,8.9,4.36-8.9H36l1.56,10.84H36.53l-1.07-7.75-3.83,7.75h-.28l-3.88-7.81-1.06,7.81Z"/><path class="cls-1" d="M39.73,207.4H46v1.06H40.82v3.4H45.9v1.06H40.82v4.26H45.9v1.06H39.73Z"/><path class="cls-1" d="M47.83,218.24V207.4h.23l7.22,8.31V207.4h1.06v10.84H56.1L49,210v8.21Z"/><path class="cls-1" d="M57.91,208.46V207.4h5.94v1.06H61.43v9.78H60.32v-9.78Z"/><path class="cls-1" d="M70.57,207.13a5.63,5.63,0,0,1,4.12,1.64,5.69,5.69,0,0,1-4,9.74,5.55,5.55,0,0,1-4.07-1.65,5.41,5.41,0,0,1-1.66-4,5.74,5.74,0,0,1,.76-2.9,5.56,5.56,0,0,1,4.88-2.84Zm.05,1.05a4.63,4.63,0,0,0-4,2.32,4.65,4.65,0,0,0-.61,2.37,4.44,4.44,0,0,0,1.34,3.26,4.4,4.4,0,0,0,3.23,1.33,4.64,4.64,0,0,0,2.34-.61,4.42,4.42,0,0,0,1.67-1.68,4.68,4.68,0,0,0,.6-2.36,4.6,4.6,0,0,0-.6-2.33,4.44,4.44,0,0,0-1.69-1.67A4.57,4.57,0,0,0,70.62,208.18Z"/><path class="cls-1" d="M78.59,207.4h2.16a12.84,12.84,0,0,1,2.44.15,2.75,2.75,0,0,1,1.57.95,2.71,2.71,0,0,1,.61,1.79,2.83,2.83,0,0,1-.42,1.55,2.59,2.59,0,0,1-1.19,1,5.57,5.57,0,0,1-2.14.35l3.9,5H84.18l-3.9-5h-.61v5H78.59Zm1.08,1.06v3.69h1.87a4.82,4.82,0,0,0,1.6-.2,1.66,1.66,0,0,0,.81-.66,1.82,1.82,0,0,0,.3-1,1.75,1.75,0,0,0-.3-1,1.65,1.65,0,0,0-.77-.64,5,5,0,0,0-1.6-.19Z"/><path class="cls-1" d="M88.58,204.28h1.58L88,206.55H87Zm-1,3.12h1.09v10.84H87.53Z"/><path class="cls-1" d="M95.53,207.4l5,10.84H99.41l-1.7-3.56H93l-1.69,3.56H90.14l5.12-10.84Zm-.14,2.31-1.86,3.92h3.71Z"/><path class="cls-1" d="M106.44,207.4h2.16a13.12,13.12,0,0,1,2.5.16,2.84,2.84,0,0,1,1.52.94,3,3,0,0,1,0,3.58,2.79,2.79,0,0,1-1.58.94,13.78,13.78,0,0,1-2.76.18h-.77v5h-1.08Zm1.08,1.06v3.68l1.83,0A4.9,4.9,0,0,0,111,212a1.59,1.59,0,0,0,.81-.65,1.82,1.82,0,0,0,.3-1,1.75,1.75,0,0,0-.3-1,1.62,1.62,0,0,0-.77-.65,4.93,4.93,0,0,0-1.58-.19Z"/><path class="cls-1" d="M115.38,207.4h6.21v1.06h-5.12v3.4h5.08v1.06h-5.08v4.26h5.08v1.06h-6.17Z"/><path class="cls-1" d="M123.53,207.4h2.16a12.84,12.84,0,0,1,2.44.15,2.75,2.75,0,0,1,1.57.95,2.71,2.71,0,0,1,.61,1.79,2.83,2.83,0,0,1-.42,1.55,2.59,2.59,0,0,1-1.19,1,5.57,5.57,0,0,1-2.14.35l3.9,5h-1.34l-3.9-5h-.61v5h-1.08Zm1.08,1.06v3.69h1.87a4.82,4.82,0,0,0,1.6-.2,1.66,1.66,0,0,0,.81-.66,1.82,1.82,0,0,0,.3-1,1.75,1.75,0,0,0-.3-1,1.65,1.65,0,0,0-.77-.64,5,5,0,0,0-1.6-.19Z"/><path class="cls-1" d="M131.51,216.22l.92-.55c.65,1.19,1.4,1.79,2.25,1.79a2.14,2.14,0,0,0,1-.25,1.85,1.85,0,0,0,.73-.68,1.76,1.76,0,0,0,.25-.91,1.8,1.8,0,0,0-.37-1.07,9.11,9.11,0,0,0-1.85-1.74,9.35,9.35,0,0,1-1.69-1.48,2.66,2.66,0,0,1-.58-1.66,2.59,2.59,0,0,1,.34-1.29,2.5,2.5,0,0,1,1-.92,2.76,2.76,0,0,1,1.33-.33,2.92,2.92,0,0,1,1.44.38,5,5,0,0,1,1.41,1.4l-.89.67a4.06,4.06,0,0,0-1-1.07,1.82,1.82,0,0,0-.94-.26,1.46,1.46,0,0,0-1.07.4,1.29,1.29,0,0,0-.42,1,1.64,1.64,0,0,0,.15.68,2.76,2.76,0,0,0,.54.73c.14.13.61.49,1.4,1.08a7.83,7.83,0,0,1,1.93,1.85,3,3,0,0,1,.52,1.63,2.8,2.8,0,0,1-.89,2.05,3.06,3.06,0,0,1-2.18.86A3.18,3.18,0,0,1,133,218,4.73,4.73,0,0,1,131.51,216.22Z"/><path class="cls-1" d="M145.31,207.13a5.65,5.65,0,0,1,4.12,1.64,5.7,5.7,0,0,1-4,9.74,5.57,5.57,0,0,1-4.08-1.65,5.44,5.44,0,0,1-1.65-4,5.83,5.83,0,0,1,.75-2.9,5.56,5.56,0,0,1,4.89-2.84Zm0,1.05a4.46,4.46,0,0,0-2.28.63,4.54,4.54,0,0,0-1.68,1.69,4.74,4.74,0,0,0-.6,2.37,4.56,4.56,0,0,0,4.56,4.59,4.62,4.62,0,0,0,2.34-.61,4.37,4.37,0,0,0,1.68-1.68,4.68,4.68,0,0,0,.6-2.36,4.6,4.6,0,0,0-.6-2.33,4.47,4.47,0,0,0-1.7-1.67A4.57,4.57,0,0,0,145.35,208.18Z"/><path class="cls-1" d="M153.27,218.24V207.4h.24l7.21,8.31V207.4h1.07v10.84h-.24L154.39,210v8.21Z"/><path class="cls-1" d="M168.86,207.4l5,10.84h-1.17l-1.7-3.56h-4.67l-1.69,3.56h-1.21l5.12-10.84Zm-.14,2.31-1.86,3.92h3.71Z"/><path class="cls-1" d="M175.59,207.4h1.09v9.8h4.17v1h-5.26Z"/><path class="cls-1" d="M182.41,207.4h1.08v10.84h-1.08Z"/><path class="cls-1" d="M185.56,208.45v-1h5.71l-4.52,9.78h4.3v1.06h-6l4.57-9.79Z"/><path class="cls-1" d="M197.65,207.4l5,10.84h-1.17l-1.7-3.56h-4.67l-1.69,3.56h-1.21l5.12-10.84Zm-.14,2.31-1.86,3.92h3.71Z"/><path class="cls-1" d="M204.38,218.24V207.4h2.25a11.49,11.49,0,0,1,3.53.39,4.74,4.74,0,0,1,2.47,1.92,5.84,5.84,0,0,1,.89,3.25,5.73,5.73,0,0,1-.71,2.87,4.51,4.51,0,0,1-1.83,1.82,6.77,6.77,0,0,1-3.15.59Zm1-1h1.26a11.46,11.46,0,0,0,3.11-.28,3.63,3.63,0,0,0,1.93-1.43,4.48,4.48,0,0,0,.7-2.53,4.67,4.67,0,0,0-.76-2.68,3.82,3.82,0,0,0-2.12-1.53,13,13,0,0,0-3.35-.31h-.77Z"/><path class="cls-1" d="M220.05,207.4l5,10.84h-1.17l-1.7-3.56h-4.67l-1.69,3.56h-1.21l5.12-10.84Zm-.14,2.31-1.86,3.92h3.71Z"/></g></svg>