<svg xmlns="http://www.w3.org/2000/svg" viewBox="0 0 484.47 529.47"><defs><style>.cls-1{fill:#0626ea;}.cls-2{fill:#f00404;}.cls-3{fill:#0421dd;}.cls-4{fill:#07a303;}</style></defs><title>uni5</title><g id="Layer_2" data-name="Layer 2"><g id="Layer_1-2" data-name="Layer 1"><path class="cls-1" d="M228.72,526.19c16.9-20.47,40.92-33.15,59.12-52.38,28.69-30.3,56.9-62.23,66.88-103,11.38-46.46-2.33-97.5-63.85-110.4-24.53-5.15-48.54-6.73-73.12-6.52-9.69.09-12.83-2-6.35-11.68,12.65-18.85,24.43-38.31,36.19-57.74,5.33-8.8,12.72-10.81,22.49-10.69,37.24.46,74.73-2.42,111.64,1.06,26.51,2.5,36-13.29,45.17-30.64,5.28-10,11.06-22.55,19.9-24.38,9.66-2,12.28,13.1,17.43,21a122.31,122.31,0,0,1,19.88,66.31c.63,70.26.25,140.52.31,210.79,0,19.95-8.63,36.94-18,53.71-13.9,24.76-33.55,42.88-60.11,53.65-4.42,1.8-8.45,3.77-13.23,3.78q-77.89.2-155.78.31C234.42,529.37,230.83,530.36,228.72,526.19Z"/><path class="cls-1" d="M99.86,78.4c28.85,0,57.7.21,86.55-.1,12.06-.13,15.34,2.13,7.89,14Q158,149.95,122.05,207.79C107.72,231,92.53,253.87,80.27,278.41,76.13,286.68,70,293.94,65.48,302c-4.72,8.41-3.6,13.12,8,13,30.41-.31,61-1.77,91.21,1.06,46.27,4.35,71,37.83,53.92,84.84-16.7,46-53.44,72.63-93.07,96.38-11,6.6-23.18,11.48-33.67,18.79-9.71,6.76-16.39,3-23.82-2.86-37.67-29.58-54.27-69.82-57.11-116.18-2-31.91-3.26-64-2.11-95.93C11.11,238,.77,175.6.14,112.64-.2,78.38-2.29,78.4,32.2,78.4Z"/><path class="cls-2" d="M48.9,30.92c0,16-7.29,24.34-21.1,24.34-14.42,0-26.09-12.37-25.54-27.09C2.73,15.62,16.67-.28,27,0,38.78.33,48.93,14.62,48.9,30.92Z"/><path class="cls-3" d="M150.08,29.89C150.14,15.09,162.45.57,174.8.73c10,.14,23,16.23,22.9,28.35-.14,14.62-11.38,26.29-25.28,26.25C157.68,55.29,150,46.56,150.08,29.89Z"/><path class="cls-4" d="M78.07,29.7C77.85,14,87.7.52,99.7.11c12.18-.4,23.68,13.91,23.9,29.74C123.79,43.19,112,55.59,99.29,55.4S78.28,45.16,78.07,29.7Z"/></g></g></svg>