<svg xmlns="http://www.w3.org/2000/svg" xmlns:xlink="http://www.w3.org/1999/xlink" viewBox="0 0 1201.57 1058.81"><defs><style>.cls-1,.cls-3{fill:none;stroke:#fff;stroke-linecap:round;stroke-linejoin:round;}.cls-1{stroke-width:3px;}.cls-2,.cls-4,.cls-5{fill:#fff;}.cls-4{font-size:160.51px;}.cls-4,.cls-5{font-family:CourierNewPSMT, Courier New;}.cls-5{font-size:112.27px;}</style><symbol id="JF" data-name="JF" viewBox="0 0 71.54 92.59"><path class="cls-1" d="M15.38,32.12S31,28,39.73,9.75c0,0-19.92,86.9-35,79.66S32.34,48.09,32.34,48.09s40.47-29.51,34.14-45S27.32,89.47,31.05,90.56c14.46,4.23,19.35-17.32,15.18-49,0,0,9.61,4.33,12.77-.59"/><circle class="cls-2" cx="41.69" cy="2.76" r="1.8"/><path class="cls-3" d="M18.19,25.27s6.8-2,13.61-10.8"/><line class="cls-3" x1="42.11" y1="14.47" x2="37.67" y2="32.34"/><line class="cls-3" x1="37.15" y1="34.5" x2="36.22" y2="38.24"/><path class="cls-3" d="M35.2,59a143.14,143.14,0,0,0-7.53,26"/><path class="cls-3" d="M70,1s4.5,10.91-5.47,20.87"/></symbol></defs><title>w_logo</title><g id="Layer_1" data-name="Layer 1"><use width="71.54" height="92.59" transform="translate(397.77 84.21) scale(5.68)" xlink:href="#JF"/><text class="cls-4" transform="translate(215.49 760.14)">arellano</text><text class="cls-5" transform="translate(28.11 898.29)">engineer of ideas</text></g></svg>